<svg xmlns="http://www.w3.org/2000/svg" xmlns:xlink="http://www.w3.org/1999/xlink" width="258.927" height="133.292" viewBox="0 0 258.927 133.292">
  <defs>
    <linearGradient id="linear-gradient" x1="0.016" y1="0.692" x2="1.03" y2="0.342" gradientUnits="objectBoundingBox">
      <stop offset="0" stop-color="#00b9e0"/>
      <stop offset="0.085" stop-color="#00b5de"/>
      <stop offset="0.193" stop-color="#00acda"/>
      <stop offset="0.313" stop-color="#009fd4"/>
      <stop offset="0.44" stop-color="#008ccb"/>
      <stop offset="0.469" stop-color="#0087ca"/>
      <stop offset="0.537" stop-color="#0083c5"/>
      <stop offset="0.637" stop-color="#0078b9"/>
      <stop offset="0.755" stop-color="#1367a8"/>
      <stop offset="0.888" stop-color="#1f5095"/>
      <stop offset="1" stop-color="#273884"/>
    </linearGradient>
    <linearGradient id="linear-gradient-2" x1="-9.006" y1="1.832" x2="1.212" y2="0.362" xlink:href="#linear-gradient"/>
    <linearGradient id="linear-gradient-3" x1="1.192" y1="0.45" x2="11.41" y2="-1.021" xlink:href="#linear-gradient"/>
    <radialGradient id="radial-gradient" cx="0.326" cy="0.461" r="1.105" gradientTransform="translate(0.191) scale(0.617 1)" gradientUnits="objectBoundingBox">
      <stop offset="0.07" stop-color="#011e3a"/>
      <stop offset="0.249" stop-color="#031c36"/>
      <stop offset="0.522" stop-color="#0a182a"/>
      <stop offset="0.853" stop-color="#080d14"/>
      <stop offset="1" stop-color="#010101"/>
    </radialGradient>
    <linearGradient id="linear-gradient-4" y1="0.5" x2="1" y2="0.5" gradientUnits="objectBoundingBox">
      <stop offset="0" stop-color="#fff"/>
      <stop offset="1" stop-color="#494046"/>
    </linearGradient>
  </defs>
  <g id="black" transform="translate(-619.122 -482)">
    <g id="TRADEXPORT" transform="translate(618 482)">
      <g id="Group_3" data-name="Group 3" transform="translate(0 94.365)">
        <g id="Group_1" data-name="Group 1">
          <path id="Path_8" data-name="Path 8" d="M19.624-12.65H1.122V-9.5H7.986V0h4.8V-9.5h6.842Zm16.1,5.17H30.294V0H40.3l-3.5-4.51a3.31,3.31,0,0,0,1.276-.275,4.634,4.634,0,0,0,1.2-.726,3.8,3.8,0,0,0,.88-1.056A2.541,2.541,0,0,0,40.5-7.832V-9.35a2.809,2.809,0,0,0-.319-1.331,3.431,3.431,0,0,0-.847-1.045,3.948,3.948,0,0,0-1.2-.682,4.024,4.024,0,0,0-1.375-.242H21.868V0h4.8V-9.5h9.064Zm20.878.748h-6.38v2.948h6.38V0H61.38V-9.46a2.877,2.877,0,0,0-.275-1.243,3.361,3.361,0,0,0-.726-1.012,3.48,3.48,0,0,0-1.045-.682,3.167,3.167,0,0,0-1.254-.253H46.068a3.183,3.183,0,0,0-1.287.264,3.4,3.4,0,0,0-1.056.715,3.4,3.4,0,0,0-.715,1.056,3.183,3.183,0,0,0-.264,1.287V0h4.8V-9.5h9.064ZM63.624,0H78.958a3.023,3.023,0,0,0,1.265-.275,3.605,3.605,0,0,0,1.067-.737,3.481,3.481,0,0,0,.726-1.056,3.053,3.053,0,0,0,.264-1.254V-9.328a3.183,3.183,0,0,0-.264-1.287,3.31,3.31,0,0,0-.726-1.056,3.54,3.54,0,0,0-1.067-.715,3.13,3.13,0,0,0-1.265-.264H63.624V-9.5H77.462v6.358h-9.02V-7.5H63.624Zm38.544-4.84V-7.788H92V-4.84ZM89.32-3.146V-9.5h13.816V-12.65H87.846a3.183,3.183,0,0,0-1.287.264,3.4,3.4,0,0,0-1.056.715,3.4,3.4,0,0,0-.715,1.056,3.183,3.183,0,0,0-.264,1.287v6.006a3.183,3.183,0,0,0,.264,1.287A3.4,3.4,0,0,0,85.5-.979a3.4,3.4,0,0,0,1.056.715A3.183,3.183,0,0,0,87.846,0h15.29V-3.146Zm21.076-9.5h-5.544l6.534,6.336L104.852,0H110.4l3.762-3.63L117.92,0h5.544L116.93-6.314l6.534-6.336H117.92L114.158-9Z" transform="translate(0 17)" fill="#01b9e0"/>
        </g>
        <g id="Group_2" data-name="Group 2" transform="translate(137.157)">
          <path id="Path_7" data-name="Path 7" d="M18.766-4.84V-7.788H8.6V-4.84ZM5.918-3.146V-9.5H19.734V-12.65H4.444a3.183,3.183,0,0,0-1.287.264,3.4,3.4,0,0,0-1.056.715,3.4,3.4,0,0,0-.715,1.056,3.183,3.183,0,0,0-.264,1.287v6.006a3.183,3.183,0,0,0,.264,1.287A3.4,3.4,0,0,0,2.1-.979a3.4,3.4,0,0,0,1.056.715A3.183,3.183,0,0,0,4.444,0h15.29V-3.146Zm21.076-9.5H21.45l6.534,6.336L21.45,0h5.544l3.762-3.63L34.518,0h5.544L33.528-6.314l6.534-6.336H34.518L30.756-9ZM55.616-7.48h-6.38v2.97H56.65a3.615,3.615,0,0,0,1.331-.264,4.511,4.511,0,0,0,1.21-.7,3.5,3.5,0,0,0,.869-1.045,2.69,2.69,0,0,0,.33-1.309V-9.35a2.809,2.809,0,0,0-.319-1.331,3.431,3.431,0,0,0-.847-1.045,3.948,3.948,0,0,0-1.2-.682,4.024,4.024,0,0,0-1.375-.242H41.756V0h4.8V-9.5h9.064ZM80.278-4.84V-7.788H70.114V-4.84ZM67.43-3.146V-9.5H81.246V-12.65H65.956a3.183,3.183,0,0,0-1.287.264,3.4,3.4,0,0,0-1.056.715,3.4,3.4,0,0,0-.715,1.056,3.183,3.183,0,0,0-.264,1.287v6.006A3.183,3.183,0,0,0,62.9-2.035a3.4,3.4,0,0,0,.715,1.056,3.4,3.4,0,0,0,1.056.715A3.183,3.183,0,0,0,65.956,0h15.29V-3.146ZM97.372-7.48H91.938V0h10.01l-3.5-4.51a3.31,3.31,0,0,0,1.276-.275,4.634,4.634,0,0,0,1.2-.726,3.8,3.8,0,0,0,.88-1.056,2.541,2.541,0,0,0,.341-1.265V-9.35a2.809,2.809,0,0,0-.319-1.331,3.431,3.431,0,0,0-.847-1.045,3.948,3.948,0,0,0-1.2-.682,4.024,4.024,0,0,0-1.375-.242H83.512V0h4.8V-9.5h9.064Zm25.52-5.17h-18.5V-9.5h6.864V0h4.8V-9.5h6.842Z" transform="translate(0 17)" fill="#212021"/>
        </g>
      </g>
      <g id="Group_4" data-name="Group 4" transform="translate(32.275 121.22)">
        <path id="Path_9" data-name="Path 9" d="M3,0V-7.632H.048V-8.4H6.84v.768H3.888V0ZM13.97,0V-8.4h3.144a4.49,4.49,0,0,1,1.836.342,2.643,2.643,0,0,1,1.182.984,2.807,2.807,0,0,1,.414,1.554,2.762,2.762,0,0,1-.414,1.53,2.643,2.643,0,0,1-1.182.984,4.49,4.49,0,0,1-1.836.342H14.462l.4-.408V0Zm5.736,0-2.16-3.048h.96L20.678,0ZM14.858-3l-.4-.42H17.09A2.9,2.9,0,0,0,19-3.972a1.915,1.915,0,0,0,.654-1.548A1.929,1.929,0,0,0,19-7.08a2.9,2.9,0,0,0-1.914-.552H14.462l.4-.42ZM27.017,0l3.84-8.4h.876L35.573,0h-.936L31.109-7.884h.36L27.941,0Zm1.512-2.244.264-.72h4.884l.264.72ZM42.679,0V-8.4H46.1a4.989,4.989,0,0,1,2.358.534,3.918,3.918,0,0,1,1.578,1.482A4.189,4.189,0,0,1,50.6-4.2a4.189,4.189,0,0,1-.564,2.184A3.918,3.918,0,0,1,48.457-.534,4.989,4.989,0,0,1,46.1,0Zm.888-.768h2.484a4.064,4.064,0,0,0,1.938-.438,3.191,3.191,0,0,0,1.278-1.212A3.444,3.444,0,0,0,49.723-4.2a3.436,3.436,0,0,0-.456-1.788,3.2,3.2,0,0,0-1.278-1.206,4.064,4.064,0,0,0-1.938-.438H43.567ZM59.1-4.644h4.44v.756H59.1Zm.1,3.876h5.052V0h-5.94V-8.4h5.76v.768H59.193ZM82.538,0V-7.632H79.586V-8.4h6.792v.768H83.426V0ZM99.652-8.4h.876V0h-.876ZM94.4,0h-.888V-8.4H94.4Zm5.34-3.876H94.3v-.78h5.436Zm10.034-.768h4.44v.756h-4.44Zm.1,3.876h5.052V0h-5.94V-8.4h5.76v.768h-4.872ZM133.487,0l-2.832-8.4h.912l2.652,7.908h-.456L136.5-8.4h.816l2.7,7.908h-.432L142.259-8.4h.852L140.279,0h-.936l-2.58-7.5H137L134.411,0Zm20.558.072a4.768,4.768,0,0,1-1.758-.318,4.146,4.146,0,0,1-1.4-.9,4.167,4.167,0,0,1-.924-1.356,4.285,4.285,0,0,1-.33-1.7,4.285,4.285,0,0,1,.33-1.7,4.167,4.167,0,0,1,.924-1.356,4.159,4.159,0,0,1,1.4-.9,4.755,4.755,0,0,1,1.764-.318,4.722,4.722,0,0,1,1.752.318,4.207,4.207,0,0,1,1.4.894,4.084,4.084,0,0,1,.924,1.356,4.329,4.329,0,0,1,.33,1.7,4.329,4.329,0,0,1-.33,1.7A4.084,4.084,0,0,1,157.2-1.14a4.207,4.207,0,0,1-1.4.894A4.722,4.722,0,0,1,154.045.072Zm0-.792a3.715,3.715,0,0,0,1.4-.258,3.3,3.3,0,0,0,1.116-.732,3.408,3.408,0,0,0,.738-1.1,3.551,3.551,0,0,0,.264-1.386,3.551,3.551,0,0,0-.264-1.386,3.408,3.408,0,0,0-.738-1.1,3.3,3.3,0,0,0-1.116-.732,3.715,3.715,0,0,0-1.4-.258,3.761,3.761,0,0,0-1.4.258,3.286,3.286,0,0,0-1.122.732,3.489,3.489,0,0,0-.744,1.1,3.482,3.482,0,0,0-.27,1.386,3.5,3.5,0,0,0,.27,1.38,3.47,3.47,0,0,0,.744,1.11,3.286,3.286,0,0,0,1.122.732A3.761,3.761,0,0,0,154.045-.72Zm12.11.72V-8.4H169.3a4.491,4.491,0,0,1,1.836.342,2.643,2.643,0,0,1,1.182.984,2.807,2.807,0,0,1,.414,1.554,2.762,2.762,0,0,1-.414,1.53,2.643,2.643,0,0,1-1.182.984,4.491,4.491,0,0,1-1.836.342h-2.652l.4-.408V0Zm5.736,0-2.16-3.048h.96L172.863,0Zm-4.848-3-.4-.42h2.628a2.9,2.9,0,0,0,1.914-.552,1.915,1.915,0,0,0,.654-1.548,1.929,1.929,0,0,0-.654-1.56,2.9,2.9,0,0,0-1.914-.552h-2.628l.4-.42Zm13.5,3V-8.4h.888V-.768h4.7V0Zm12.782,0V-8.4h3.42a4.988,4.988,0,0,1,2.358.534,3.918,3.918,0,0,1,1.578,1.482,4.189,4.189,0,0,1,.564,2.184,4.189,4.189,0,0,1-.564,2.184,3.918,3.918,0,0,1-1.578,1.482A4.988,4.988,0,0,1,196.748,0Zm.888-.768H196.7a4.064,4.064,0,0,0,1.938-.438,3.191,3.191,0,0,0,1.278-1.212,3.444,3.444,0,0,0,.456-1.782,3.436,3.436,0,0,0-.456-1.788,3.2,3.2,0,0,0-1.278-1.206,4.064,4.064,0,0,0-1.938-.438h-2.484Z" transform="translate(0 12)" fill="#212021"/>
      </g>
      <g id="Group_7" data-name="Group 7" transform="translate(83.909 0)">
        <path id="Path_1" data-name="Path 1" d="M436.239,204.017V182.671c-.66-11.395-9.232-15.687-9.232-15.687a57.111,57.111,0,0,0-27.593-7.5v-6.034a9.106,9.106,0,1,0-5.119,0v6.132c-15.3.359-22.293,4.431-22.293,4.431-12.715,5.615-14.037,17.174-14.037,17.174v21.963a12.352,12.352,0,0,0,5.946,9.815c12.384,8.164,33.853,8.35,33.853,8.35,12.55-.826,19.816-3.138,19.816-3.138C436.569,213.221,436.239,204.017,436.239,204.017Zm-43.369-59.3a3.986,3.986,0,1,1,3.986,3.987A3.985,3.985,0,0,1,392.87,144.714Zm12.345,24.767a57.429,57.429,0,0,0-17.544,0,.613.613,0,0,1-.622-.525.646.646,0,0,1,.533-.73,50.793,50.793,0,0,1,17.633,0,.73.73,0,0,1,.648.73S405.744,169.53,405.215,169.481Z" transform="translate(-348.388 -135.608)" fill="url(#linear-gradient)"/>
        <g id="Group_6" data-name="Group 6" transform="translate(0 40.127)">
          <g id="Group_5" data-name="Group 5" transform="translate(0 5.731)">
            <path id="Path_2" data-name="Path 2" d="M509.433,222.156V242.47c7.761.789,7.761-3.257,7.761-3.257v-12.88C516.533,222.37,509.433,222.156,509.433,222.156Z" transform="translate(-419.599 -222.156)" fill="url(#linear-gradient-2)"/>
            <path id="Path_3" data-name="Path 3" d="M339.89,226.333v12.88s0,4.047,7.761,3.256V222.156S340.551,222.37,339.89,226.333Z" transform="translate(-339.89 -222.156)" fill="url(#linear-gradient-3)"/>
          </g>
          <path id="Path_4" data-name="Path 4" d="M374.472,220.422a4.855,4.855,0,0,1,2.312-4.458s6.276-3.963,29.725-4.624c0,0,16.183.66,25.431,4.541,0,0,2.807,1.062,2.807,3.551v18.33a4.586,4.586,0,0,1-2.146,3.468s-5.943,6.255-27.989,7.338c0,0-17.817,0-28.322-7.5a4.118,4.118,0,0,1-1.83-3.137Z" transform="translate(-356.142 -211.34)" fill="#231f20"/>
          <path id="Path_5" data-name="Path 5" d="M374.472,220.422a4.855,4.855,0,0,1,2.312-4.458s7.359-4.624,29.725-4.624c0,0,16.183.66,25.431,4.541,0,0,2.807,1.062,2.807,3.551v18.33a4.586,4.586,0,0,1-2.146,3.468s-5.943,6.255-27.989,7.338c0,0-17.817,0-28.322-7.5a4.118,4.118,0,0,1-1.83-3.137Z" transform="translate(-356.142 -211.34)" fill="url(#radial-gradient)"/>
          <path id="Path_6" data-name="Path 6" d="M381.379,221.9l0,2.223c2.925,3.294,14.419,10.4,54.462,11.006v-14c0-.671-.945-1.015-1.1-1.079l-.087-.035c-8.359-3.507-22.63-4.274-23.9-4.334-19.323-.388-28.271,4.2-28.3,4.221a2.191,2.191,0,0,0-1.089,1.91Z" transform="translate(-359.386 -213.369)" fill="url(#linear-gradient-4)"/>
          <circle id="Ellipse_1" data-name="Ellipse 1" cx="6.11" cy="6.11" r="6.11" transform="translate(58.941 12.504)" fill="#fff"/>
          <circle id="Ellipse_2" data-name="Ellipse 2" cx="6.11" cy="6.11" r="6.11" transform="translate(25.266 12.504)" fill="#fff"/>
        </g>
      </g>
    </g>
  </g>
</svg>
