<svg xmlns="http://www.w3.org/2000/svg" xmlns:xlink="http://www.w3.org/1999/xlink" width="304.577" height="142.271" viewBox="0 0 304.577 142.271">
  <defs>
    <linearGradient id="linear-gradient" x1="0.016" y1="0.692" x2="1.03" y2="0.342" gradientUnits="objectBoundingBox">
      <stop offset="0" stop-color="#00b9e0"/>
      <stop offset="0.085" stop-color="#00b5de"/>
      <stop offset="0.193" stop-color="#00acda"/>
      <stop offset="0.313" stop-color="#009fd4"/>
      <stop offset="0.44" stop-color="#008ccb"/>
      <stop offset="0.469" stop-color="#0087ca"/>
      <stop offset="0.537" stop-color="#0083c5"/>
      <stop offset="0.637" stop-color="#0078b9"/>
      <stop offset="0.755" stop-color="#1367a8"/>
      <stop offset="0.888" stop-color="#1f5095"/>
      <stop offset="1" stop-color="#273884"/>
    </linearGradient>
    <linearGradient id="linear-gradient-2" x1="-9.006" y1="1.832" x2="1.212" y2="0.362" xlink:href="#linear-gradient"/>
    <linearGradient id="linear-gradient-3" x1="1.192" y1="0.45" x2="11.41" y2="-1.021" xlink:href="#linear-gradient"/>
    <radialGradient id="radial-gradient" cx="0.326" cy="0.461" r="1.105" gradientTransform="translate(0.191) scale(0.617 1)" gradientUnits="objectBoundingBox">
      <stop offset="0.07" stop-color="#011e3a"/>
      <stop offset="0.249" stop-color="#031c36"/>
      <stop offset="0.522" stop-color="#0a182a"/>
      <stop offset="0.853" stop-color="#080d14"/>
      <stop offset="1" stop-color="#010101"/>
    </radialGradient>
    <linearGradient id="linear-gradient-4" y1="0.5" x2="1" y2="0.5" gradientUnits="objectBoundingBox">
      <stop offset="0" stop-color="#fff"/>
      <stop offset="1" stop-color="#494046"/>
    </linearGradient>
  </defs>
  <g id="white-full" transform="translate(-619.275 -482)">
    <g id="TRADEXPORT" transform="translate(618 482)">
      <g id="Group_3" data-name="Group 3" transform="translate(0 100.435)">
        <g id="Group_1" data-name="Group 1">
          <path id="Path_11" data-name="Path 11" d="M22.3-14.375H1.275V-10.8h7.8V0h5.45V-10.8H22.3ZM40.6-8.5H34.425V0H45.8L41.825-5.125a3.761,3.761,0,0,0,1.45-.312,5.265,5.265,0,0,0,1.362-.825,4.318,4.318,0,0,0,1-1.2A2.887,2.887,0,0,0,46.025-8.9v-1.725a3.193,3.193,0,0,0-.362-1.513,3.9,3.9,0,0,0-.963-1.188,4.487,4.487,0,0,0-1.362-.775,4.572,4.572,0,0,0-1.562-.275H24.85V0H30.3V-10.8H40.6Zm23.725.85h-7.25V-4.3h7.25V0H69.75V-10.75a3.27,3.27,0,0,0-.312-1.413,3.819,3.819,0,0,0-.825-1.15,3.954,3.954,0,0,0-1.187-.775A3.6,3.6,0,0,0,66-14.375H52.35a3.617,3.617,0,0,0-1.462.3,3.865,3.865,0,0,0-1.2.812,3.865,3.865,0,0,0-.812,1.2,3.617,3.617,0,0,0-.3,1.462V0h5.45V-10.8h10.3ZM72.3,0H89.725a3.436,3.436,0,0,0,1.438-.312,4.1,4.1,0,0,0,1.212-.838,3.955,3.955,0,0,0,.825-1.2,3.47,3.47,0,0,0,.3-1.425V-10.6a3.617,3.617,0,0,0-.3-1.462,3.762,3.762,0,0,0-.825-1.2,4.023,4.023,0,0,0-1.212-.812,3.557,3.557,0,0,0-1.437-.3H72.3V-10.8H88.025v7.225H77.775v-4.95H72.3Zm43.8-5.5V-8.85H104.55V-5.5ZM101.5-3.575V-10.8h15.7v-3.575H99.825a3.617,3.617,0,0,0-1.463.3,3.865,3.865,0,0,0-1.2.812,3.865,3.865,0,0,0-.812,1.2,3.617,3.617,0,0,0-.3,1.462v6.825a3.617,3.617,0,0,0,.3,1.463,3.865,3.865,0,0,0,.813,1.2,3.865,3.865,0,0,0,1.2.813,3.617,3.617,0,0,0,1.463.3H117.2V-3.575Zm23.95-10.8h-6.3l7.425,7.2L119.15,0h6.3l4.275-4.125L134,0h6.3l-7.425-7.175,7.425-7.2H134l-4.275,4.15Z" transform="translate(0 19)" fill="#01b9e0"/>
        </g>
        <g id="Group_2" data-name="Group 2" transform="translate(166.202)">
          <path id="Path_10" data-name="Path 10" d="M21.325-5.5V-8.85H9.775V-5.5ZM6.725-3.575V-10.8h15.7v-3.575H5.05a3.617,3.617,0,0,0-1.463.3,3.865,3.865,0,0,0-1.2.812,3.865,3.865,0,0,0-.813,1.2,3.617,3.617,0,0,0-.3,1.462v6.825a3.617,3.617,0,0,0,.3,1.463,3.865,3.865,0,0,0,.813,1.2,3.865,3.865,0,0,0,1.2.813A3.617,3.617,0,0,0,5.05,0H22.425V-3.575Zm23.95-10.8h-6.3l7.425,7.2L24.375,0h6.3L34.95-4.125,39.225,0h6.3L38.1-7.175l7.425-7.2h-6.3l-4.275,4.15ZM63.2-8.5H55.95v3.375h8.425a4.108,4.108,0,0,0,1.513-.3,5.126,5.126,0,0,0,1.375-.8,3.98,3.98,0,0,0,.987-1.188A3.057,3.057,0,0,0,68.625-8.9v-1.725a3.193,3.193,0,0,0-.362-1.513,3.9,3.9,0,0,0-.963-1.188,4.487,4.487,0,0,0-1.363-.775,4.572,4.572,0,0,0-1.562-.275H47.45V0H52.9V-10.8H63.2Zm28.025,3V-8.85H79.675V-5.5Zm-14.6,1.925V-10.8h15.7v-3.575H74.95a3.617,3.617,0,0,0-1.463.3,3.865,3.865,0,0,0-1.2.812,3.865,3.865,0,0,0-.812,1.2,3.617,3.617,0,0,0-.3,1.462v6.825a3.617,3.617,0,0,0,.3,1.463,3.865,3.865,0,0,0,.813,1.2,3.865,3.865,0,0,0,1.2.813A3.617,3.617,0,0,0,74.95,0H92.325V-3.575ZM110.65-8.5h-6.175V0H115.85l-3.975-5.125a3.761,3.761,0,0,0,1.45-.312,5.265,5.265,0,0,0,1.363-.825,4.318,4.318,0,0,0,1-1.2,2.887,2.887,0,0,0,.387-1.438v-1.725a3.193,3.193,0,0,0-.362-1.513,3.9,3.9,0,0,0-.963-1.188,4.487,4.487,0,0,0-1.363-.775,4.572,4.572,0,0,0-1.562-.275H94.9V0h5.45V-10.8h10.3Zm29-5.875H118.625V-10.8h7.8V0h5.45V-10.8h7.775Z" transform="translate(0 19)" fill="#212021"/>
        </g>
      </g>
      <g id="Group_4" data-name="Group 4" transform="translate(71.834 132.211)">
        <path id="Path_12" data-name="Path 12" d="M2.5,0V-6.36H.04V-7H5.7v.64H3.24V0Zm9.142,0V-7h2.62a3.742,3.742,0,0,1,1.53.285,2.2,2.2,0,0,1,.985.82,2.339,2.339,0,0,1,.345,1.3,2.3,2.3,0,0,1-.345,1.275,2.2,2.2,0,0,1-.985.82,3.742,3.742,0,0,1-1.53.285h-2.21l.33-.34V0Zm4.78,0-1.8-2.54h.8L17.232,0Zm-4.04-2.5-.33-.35h2.19a2.415,2.415,0,0,0,1.595-.46,1.6,1.6,0,0,0,.545-1.29,1.607,1.607,0,0,0-.545-1.3,2.415,2.415,0,0,0-1.595-.46h-2.19l.33-.35ZM22.514,0l3.2-7h.73l3.2,7h-.78l-2.94-6.57h.3L23.284,0Zm1.26-1.87.22-.6h4.07l.22.6ZM35.566,0V-7h2.85a4.157,4.157,0,0,1,1.965.445A3.265,3.265,0,0,1,41.7-5.32a3.491,3.491,0,0,1,.47,1.82,3.491,3.491,0,0,1-.47,1.82A3.265,3.265,0,0,1,40.381-.445,4.157,4.157,0,0,1,38.416,0Zm.74-.64h2.07A3.387,3.387,0,0,0,39.991-1a2.659,2.659,0,0,0,1.065-1.01,2.87,2.87,0,0,0,.38-1.485,2.863,2.863,0,0,0-.38-1.49,2.67,2.67,0,0,0-1.065-1,3.387,3.387,0,0,0-1.615-.365h-2.07ZM49.248-3.87h3.7v.63h-3.7Zm.08,3.23h4.21V0h-4.95V-7h4.8v.64h-4.06ZM68.781,0V-6.36h-2.46V-7h5.66v.64h-2.46V0ZM83.043-7h.73V0h-.73Zm-4.38,7h-.74V-7h.74Zm4.45-3.23h-4.53v-.65h4.53Zm8.362-.64h3.7v.63h-3.7Zm.08,3.23h4.21V0h-4.95V-7h4.8v.64h-4.06ZM111.239,0l-2.36-7h.76l2.21,6.59h-.38L113.749-7h.68l2.25,6.59h-.36L118.549-7h.71L116.9,0h-.78l-2.15-6.25h.2L112.009,0Zm17.132.06a3.974,3.974,0,0,1-1.465-.265,3.455,3.455,0,0,1-1.17-.75,3.472,3.472,0,0,1-.77-1.13,3.571,3.571,0,0,1-.275-1.415,3.571,3.571,0,0,1,.275-1.415,3.472,3.472,0,0,1,.77-1.13A3.466,3.466,0,0,1,126.9-6.8a3.963,3.963,0,0,1,1.47-.265,3.935,3.935,0,0,1,1.46.265A3.506,3.506,0,0,1,131-6.05a3.4,3.4,0,0,1,.77,1.13,3.607,3.607,0,0,1,.275,1.42,3.607,3.607,0,0,1-.275,1.42A3.4,3.4,0,0,1,131-.95a3.506,3.506,0,0,1-1.165.745A3.935,3.935,0,0,1,128.371.06Zm0-.66a3.1,3.1,0,0,0,1.165-.215,2.749,2.749,0,0,0,.93-.61,2.84,2.84,0,0,0,.615-.92A2.959,2.959,0,0,0,131.3-3.5a2.959,2.959,0,0,0-.22-1.155,2.84,2.84,0,0,0-.615-.92,2.749,2.749,0,0,0-.93-.61,3.1,3.1,0,0,0-1.165-.215,3.134,3.134,0,0,0-1.17.215,2.738,2.738,0,0,0-.935.61,2.907,2.907,0,0,0-.62.92,2.9,2.9,0,0,0-.225,1.155,2.912,2.912,0,0,0,.225,1.15,2.892,2.892,0,0,0,.62.925,2.738,2.738,0,0,0,.935.61A3.134,3.134,0,0,0,128.371-.6Zm10.092.6V-7h2.62a3.742,3.742,0,0,1,1.53.285,2.2,2.2,0,0,1,.985.82,2.339,2.339,0,0,1,.345,1.3,2.3,2.3,0,0,1-.345,1.275,2.2,2.2,0,0,1-.985.82,3.742,3.742,0,0,1-1.53.285h-2.21l.33-.34V0Zm4.78,0-1.8-2.54h.8L144.053,0ZM139.2-2.5l-.33-.35h2.19a2.415,2.415,0,0,0,1.6-.46A1.6,1.6,0,0,0,143.2-4.6a1.607,1.607,0,0,0-.545-1.3,2.415,2.415,0,0,0-1.6-.46h-2.19l.33-.35ZM150.455,0V-7h.74V-.64h3.92V0Zm10.652,0V-7h2.85a4.157,4.157,0,0,1,1.965.445,3.265,3.265,0,0,1,1.315,1.235,3.491,3.491,0,0,1,.47,1.82,3.491,3.491,0,0,1-.47,1.82,3.265,3.265,0,0,1-1.315,1.235A4.157,4.157,0,0,1,163.957,0Zm.74-.64h2.07A3.387,3.387,0,0,0,165.532-1a2.659,2.659,0,0,0,1.065-1.01,2.87,2.87,0,0,0,.38-1.485,2.863,2.863,0,0,0-.38-1.49,2.67,2.67,0,0,0-1.065-1,3.387,3.387,0,0,0-1.615-.365h-2.07Z" transform="translate(0 10)" fill="#212021"/>
      </g>
      <g id="Group_7" data-name="Group 7" transform="translate(106.336 0)">
        <path id="Path_1" data-name="Path 1" d="M441.274,208.418V185.7c-.7-12.128-9.826-16.7-9.826-16.7a60.784,60.784,0,0,0-29.368-7.983V154.6a9.691,9.691,0,1,0-5.448,0v6.526c-16.289.382-23.727,4.716-23.727,4.716-13.533,5.976-14.94,18.278-14.94,18.278v23.375a13.146,13.146,0,0,0,6.328,10.446c13.181,8.689,36.03,8.887,36.03,8.887,13.358-.879,21.09-3.34,21.09-3.34C441.626,218.213,441.274,208.418,441.274,208.418ZM395.116,145.3a4.242,4.242,0,1,1,4.242,4.243A4.242,4.242,0,0,1,395.116,145.3Zm13.139,26.36a61.123,61.123,0,0,0-18.673,0,.653.653,0,0,1-.662-.558.687.687,0,0,1,.567-.777,54.06,54.06,0,0,1,18.767,0,.777.777,0,0,1,.69.777S408.817,171.712,408.254,171.66Z" transform="translate(-347.772 -135.608)" fill="url(#linear-gradient)"/>
        <g id="Group_6" data-name="Group 6" transform="translate(0 42.708)">
          <g id="Group_5" data-name="Group 5" transform="translate(0 6.1)">
            <path id="Path_2" data-name="Path 2" d="M509.433,222.156v21.621c8.261.84,8.261-3.466,8.261-3.466V226.6C516.99,222.383,509.433,222.156,509.433,222.156Z" transform="translate(-413.821 -222.156)" fill="url(#linear-gradient-2)"/>
            <path id="Path_3" data-name="Path 3" d="M339.89,226.6v13.709s0,4.307,8.261,3.466V222.156S340.594,222.383,339.89,226.6Z" transform="translate(-339.89 -222.156)" fill="url(#linear-gradient-3)"/>
          </g>
          <path id="Path_4" data-name="Path 4" d="M374.473,221.007a5.167,5.167,0,0,1,2.46-4.745s6.679-4.218,31.637-4.922c0,0,17.224.7,27.067,4.833,0,0,2.987,1.131,2.987,3.779v19.509a4.881,4.881,0,0,1-2.285,3.691s-6.326,6.657-29.79,7.81c0,0-18.963,0-30.143-7.986a4.382,4.382,0,0,1-1.947-3.339Z" transform="translate(-354.964 -211.34)" fill="#231f20"/>
          <path id="Path_5" data-name="Path 5" d="M374.473,221.007a5.167,5.167,0,0,1,2.46-4.745s7.833-4.922,31.637-4.922c0,0,17.224.7,27.067,4.833,0,0,2.987,1.131,2.987,3.779v19.509a4.881,4.881,0,0,1-2.285,3.691s-6.326,6.657-29.79,7.81c0,0-18.963,0-30.143-7.986a4.382,4.382,0,0,1-1.947-3.339Z" transform="translate(-354.964 -211.34)" fill="url(#radial-gradient)"/>
          <path id="Path_6" data-name="Path 6" d="M381.38,222.3l0,2.366c3.114,3.505,15.347,11.069,57.965,11.714v-14.9c0-.714-1.005-1.081-1.171-1.149l-.092-.037c-8.9-3.733-24.085-4.549-25.438-4.612-20.566-.413-30.089,4.474-30.122,4.492a2.331,2.331,0,0,0-1.159,2.032Z" transform="translate(-357.973 -213.222)" fill="url(#linear-gradient-4)"/>
          <circle id="Ellipse_1" data-name="Ellipse 1" cx="6.503" cy="6.503" r="6.503" transform="translate(62.733 13.308)" fill="#fff"/>
          <circle id="Ellipse_2" data-name="Ellipse 2" cx="6.503" cy="6.503" r="6.503" transform="translate(26.891 13.308)" fill="#fff"/>
        </g>
      </g>
    </g>
  </g>
</svg>
