<?xml version="1.0" encoding="UTF-8"?>
<svg id="Layer_2" data-name="Layer 2" xmlns="http://www.w3.org/2000/svg" viewBox="0 0 260.44 173.49">
  <defs>
    <style>
      .cls-1 {
        fill: #ed1b2f;
      }

      .cls-2 {
        fill: #fff;
      }
    </style>
  </defs>
  <g id="Layer_1-2" data-name="Layer 1">
    <g>
      <g>
        <path class="cls-1" d="M178.03,91.45c-9.72,16.25-27.48,27.12-47.81,27.12-30.74,0-55.68-24.9-55.68-55.68S99.48,7.21,130.22,7.21c19.51,0,36.67,10.03,46.61,25.21h-15c-7.92,0-15.52,3.19-21.08,8.85l-13.45,13.72-14.73,3.41c-11.43,4.99-10.13,18.26-10.13,18.26v11.17c.47,1.66,1.59,3.33,4.21,3.43.5.01.93.08,1.31.19h3.93c.27-7.83,6.69-14.1,14.59-14.1s14.32,6.27,14.58,14.1h36.97Z"/>
        <path class="cls-1" d="M189.19,84.78c-.54,1.47-1.14,2.91-1.79,4.32-.36.81-.75,1.6-1.15,2.39-10.42,20.36-31.6,34.29-56.03,34.29-34.7,0-62.89-28.15-62.89-62.89S95.52,0,130.22,0c23.66,0,44.28,13.1,55.01,32.42h.27v.49c.26.47.51.95.76,1.43.72,1.41,1.39,2.85,2,4.32h-27.67c-1.19,0-2.16-.97-2.16-2.16,0-.6.24-1.14.63-1.53s.93-.63,1.53-.63h20.28c-.37-.65-.75-1.29-1.14-1.92-10.22-16.6-28.56-27.66-49.51-27.66-32.1,0-58.14,26.04-58.14,58.13s26.04,58.14,58.14,58.14c21.75,0,40.69-11.91,50.66-29.58.44-.77.86-1.56,1.25-2.35h-21.54c-1.19,0-2.16-.97-2.16-2.16,0-.6.24-1.14.63-1.53s.93-.63,1.53-.63h28.6Z"/>
        <g>
          <path class="cls-2" d="M160.59,84.78h28.6c2.53-6.82,3.92-14.19,3.92-21.89,0-8.59-1.72-16.77-4.85-24.23h-27.67c-1.19,0-2.16-.97-2.16-2.16,0-.6.24-1.14.63-1.53s.93-.63,1.53-.63h20.28c-.37-.65-.75-1.29-1.14-1.92-10.22-16.6-28.56-27.66-49.51-27.66-32.1,0-58.14,26.04-58.14,58.13s26.04,58.14,58.14,58.14c21.75,0,40.69-11.91,50.66-29.58.44-.77.86-1.56,1.25-2.35h-21.54c-1.19,0-2.16-.97-2.16-2.16,0-.6.24-1.14.63-1.53s.93-.63,1.53-.63ZM102.44,76.66v11.17c.47,1.66,1.59,3.33,4.21,3.43.5.01.93.08,1.31.19h3.93c.27-7.83,6.69-14.1,14.59-14.1s14.32,6.27,14.58,14.1h36.97c-9.72,16.25-27.48,27.12-47.81,27.12-30.74,0-55.68-24.9-55.68-55.68S99.48,7.21,130.22,7.21c19.51,0,36.67,10.03,46.61,25.21h-15c-7.92,0-15.52,3.19-21.08,8.85l-13.45,13.72-14.73,3.41c-11.43,4.99-10.13,18.26-10.13,18.26Z"/>
          <path class="cls-2" d="M138.49,91.65c0,6.57-5.32,11.89-11.89,11.89s-11.89-5.32-11.89-11.89c0-.13,0-.27,0-.4.21-6.38,5.45-11.49,11.89-11.49s11.68,5.11,11.89,11.49c0,.13,0,.27,0,.4Z"/>
        </g>
      </g>
      <g>
        <path class="cls-1" d="M15.95,172.84c-2.06,0-4.06-.38-6.02-1.15s-3.72-1.93-5.28-3.5c-1.51-1.54-2.66-3.27-3.46-5.19-.8-1.93-1.2-3.96-1.2-6.11s.4-4.22,1.2-6.15c.8-1.93,1.95-3.64,3.46-5.15,1.56-1.57,3.33-2.74,5.3-3.52,1.97-.78,3.98-1.17,6.02-1.17s4.04.39,6,1.17c1.96.78,3.72,1.96,5.28,3.52l-5.17,5.17c-.84-.84-1.8-1.47-2.87-1.89s-2.16-.63-3.26-.63-2.18.21-3.24.63c-1.06.42-2.01,1.05-2.85,1.89-.81.84-1.43,1.78-1.87,2.83-.43,1.04-.65,2.14-.65,3.3s.22,2.25.65,3.28c.43,1.03,1.06,1.96,1.87,2.8.84.84,1.79,1.47,2.85,1.89,1.06.42,2.14.63,3.24.63s2.19-.21,3.26-.63,2.03-1.05,2.87-1.89l5.17,5.22c-1.57,1.57-3.32,2.73-5.26,3.5-1.94.77-3.96,1.15-6.04,1.15Z"/>
        <path class="cls-1" d="M44.15,140.93c2.2,0,4.27.42,6.21,1.26,1.94.84,3.63,1.98,5.08,3.41s2.59,3.12,3.43,5.06c.84,1.94,1.26,4.01,1.26,6.22s-.42,4.28-1.26,6.22c-.84,1.94-1.98,3.63-3.43,5.06s-3.14,2.57-5.08,3.41-4.01,1.26-6.21,1.26-4.27-.42-6.21-1.26c-1.94-.84-3.63-1.98-5.06-3.41s-2.57-3.12-3.41-5.06c-.84-1.94-1.26-4.01-1.26-6.22s.42-4.27,1.26-6.22c.84-1.94,1.98-3.63,3.41-5.06s3.12-2.57,5.06-3.41c1.94-.84,4.01-1.26,6.21-1.26ZM44.17,165.49c1.19,0,2.3-.22,3.35-.67,1.04-.45,1.96-1.06,2.74-1.85.78-.78,1.4-1.7,1.85-2.74.45-1.04.67-2.16.67-3.35s-.22-2.3-.67-3.35c-.45-1.04-1.06-1.96-1.85-2.74-.78-.78-1.7-1.4-2.74-1.85-1.04-.45-2.16-.67-3.35-.67s-2.3.22-3.35.67c-1.04.45-1.96,1.06-2.74,1.85-.78.78-1.4,1.7-1.85,2.74-.45,1.04-.67,2.16-.67,3.35s.22,2.3.67,3.35c.45,1.04,1.06,1.96,1.85,2.74.78.78,1.7,1.4,2.74,1.85,1.04.45,2.16.67,3.35.67Z"/>
        <path class="cls-1" d="M72.77,173.49c-1.02,0-2.02-.14-3.02-.41-1-.27-1.95-.7-2.85-1.28-1.56-1.01-2.78-2.33-3.65-3.93-.87-1.61-1.3-3.37-1.3-5.28h7.35c0,.87.19,1.54.57,2.02.38.48.71.8,1,.98.52.35,1.09.54,1.7.57.61.03,1.2-.09,1.78-.35.41-.17.73-.39.98-.65.25-.26.44-.51.57-.76.13-.25.21-.49.24-.72.03-.23.04-.42.04-.57s-.01-.33-.04-.57c-.03-.23-.11-.48-.24-.74s-.32-.51-.57-.76c-.25-.25-.57-.47-.98-.67-.32-.14-.66-.27-1.02-.39-.36-.12-.75-.25-1.15-.39-.72-.23-1.48-.49-2.26-.78-.78-.29-1.57-.68-2.35-1.17-1.02-.64-1.87-1.43-2.56-2.39-.7-.96-1.2-1.98-1.5-3.09-.3-1.1-.41-2.24-.3-3.41.1-1.17.43-2.3.98-3.37.52-.98,1.17-1.84,1.96-2.56.78-.72,1.65-1.3,2.61-1.72.96-.42,1.98-.67,3.09-.76,1.1-.09,2.22.02,3.35.3,1.1.26,2.09.67,2.99,1.24.89.56,1.66,1.25,2.31,2.04s1.15,1.69,1.49,2.67.52,2.01.52,3.09h-7.31c0-.67-.21-1.13-.63-1.39-.42-.26-.79-.43-1.11-.52-.06,0-.2-.02-.41-.07-.22-.04-.46-.04-.74,0-.28.04-.56.15-.85.3-.29.16-.52.41-.7.76-.23.46-.28.95-.13,1.46.14.51.43.91.87,1.2.41.23.85.44,1.35.63.49.19,1.01.37,1.56.54.49.15.99.3,1.5.48.51.17,1.02.38,1.54.61,1.9.87,3.39,2.14,4.47,3.83,1.08,1.68,1.62,3.55,1.62,5.61s-.54,3.88-1.62,5.56c-1.08,1.68-2.57,2.96-4.47,3.83-.75.35-1.51.6-2.3.76-.78.16-1.56.24-2.35.24Z"/>
        <path class="cls-1" d="M108.9,140.93h7.56l1.87,31.95h-7.35l-.78-13.04-4.43,13.04h-7.35l-4.7-13.56-.87,13.56h-7.39l2.04-31.95h7.56l7,20,6.83-20Z"/>
        <path class="cls-1" d="M135.26,140.93c2.2,0,4.27.42,6.21,1.26,1.94.84,3.63,1.98,5.08,3.41s2.59,3.12,3.43,5.06c.84,1.94,1.26,4.01,1.26,6.22s-.42,4.28-1.26,6.22c-.84,1.94-1.98,3.63-3.43,5.06s-3.14,2.57-5.08,3.41-4.01,1.26-6.21,1.26-4.27-.42-6.21-1.26c-1.94-.84-3.63-1.98-5.06-3.41s-2.57-3.12-3.41-5.06c-.84-1.94-1.26-4.01-1.26-6.22s.42-4.27,1.26-6.22c.84-1.94,1.98-3.63,3.41-5.06s3.12-2.57,5.06-3.41c1.94-.84,4.01-1.26,6.21-1.26ZM135.29,165.49c1.19,0,2.3-.22,3.35-.67,1.04-.45,1.96-1.06,2.74-1.85.78-.78,1.4-1.7,1.85-2.74.45-1.04.67-2.16.67-3.35s-.22-2.3-.67-3.35c-.45-1.04-1.06-1.96-1.85-2.74-.78-.78-1.7-1.4-2.74-1.85-1.04-.45-2.16-.67-3.35-.67s-2.3.22-3.35.67c-1.04.45-1.96,1.06-2.74,1.85-.78.78-1.4,1.7-1.85,2.74-.45,1.04-.67,2.16-.67,3.35s.22,2.3.67,3.35c.45,1.04,1.06,1.96,1.85,2.74.78.78,1.7,1.4,2.74,1.85,1.04.45,2.16.67,3.35.67Z"/>
        <path class="cls-1" d="M172.72,140.84v7.35h-6.13v24.69h-7.35v-24.69h-6.09v-7.35h19.56Z"/>
        <path class="cls-1" d="M190.56,140.93c2.2,0,4.27.42,6.21,1.26,1.94.84,3.63,1.98,5.08,3.41s2.59,3.12,3.43,5.06c.84,1.94,1.26,4.01,1.26,6.22s-.42,4.28-1.26,6.22c-.84,1.94-1.98,3.63-3.43,5.06s-3.14,2.57-5.08,3.41-4.01,1.26-6.21,1.26-4.27-.42-6.21-1.26c-1.94-.84-3.63-1.98-5.06-3.41s-2.57-3.12-3.41-5.06c-.84-1.94-1.26-4.01-1.26-6.22s.42-4.27,1.26-6.22c.84-1.94,1.98-3.63,3.41-5.06s3.12-2.57,5.06-3.41c1.94-.84,4.01-1.26,6.21-1.26ZM190.58,165.49c1.19,0,2.3-.22,3.35-.67,1.04-.45,1.96-1.06,2.74-1.85.78-.78,1.4-1.7,1.85-2.74.45-1.04.67-2.16.67-3.35s-.22-2.3-.67-3.35c-.45-1.04-1.06-1.96-1.85-2.74-.78-.78-1.7-1.4-2.74-1.85-1.04-.45-2.16-.67-3.35-.67s-2.3.22-3.35.67c-1.04.45-1.96,1.06-2.74,1.85-.78.78-1.4,1.7-1.85,2.74-.45,1.04-.67,2.16-.67,3.35s.22,2.3.67,3.35c.45,1.04,1.06,1.96,1.85,2.74.78.78,1.7,1.4,2.74,1.85,1.04.45,2.16.67,3.35.67Z"/>
        <path class="cls-1" d="M228.1,140.97h7.35v31.91h-7.96l-10.43-18.61v18.61h-7.35v-31.82h8l10.39,18.56v-18.65Z"/>
        <path class="cls-1" d="M260.44,148.32h-13.13v4.83h10.65v7.35h-10.65v5.04h13.13v7.35h-20.48v-31.87l20.48-.04v7.35Z"/>
      </g>
    </g>
  </g>
</svg>