<svg xmlns="http://www.w3.org/2000/svg" width="69.753" height="64.726" viewBox="0 0 69.753 64.726">
  <g id="mobile" transform="translate(-611.564 -734)">
    <path id="Path_66" data-name="Path 66" d="M827.738,501.487c-3.672-6.141-7.312-12.228-10.953-18.315q-5.675-9.486-11.35-18.972-4.65-7.783-9.295-15.569a1.405,1.405,0,0,1-.019-1.612c1.821-3.027,3.618-6.069,5.433-9.1.445-.743.838-.713,1.315.084q4.315,7.212,8.625,14.427,5.995,10.018,11.993,20.034,8.285,13.858,16.561,27.721a2.594,2.594,0,0,1,.272.508,1,1,0,0,1-.745,1.336,2.846,2.846,0,0,1-.733.075c-3.235,0-6.47,0-9.7,0A1.371,1.371,0,0,1,827.738,501.487Z" transform="translate(-159.064 296.617)" fill="#12af4c"/>
    <path id="Path_67" data-name="Path 67" d="M573.128,955.63h4.147c.194,0,.388-.011.58.008.636.063.838.39.54.95-.4.755-.849,1.486-1.276,2.227-1.226,2.128-2.448,4.259-3.683,6.381-.2.345-.337.846-.828.835s-.6-.513-.8-.86q-2.386-4.119-4.761-8.244c-.585-1.016-.419-1.293.775-1.3C569.562,955.628,571.3,955.63,573.128,955.63Z" transform="translate(51.087 -178.64)" fill="#ff7402"/>
    <path id="Path_68" data-name="Path 68" d="M734.831,958.149c-1.419,2.463-2.807,4.874-4.2,7.281a1.652,1.652,0,0,1-.392.515c-.289.214-.622.044-.9-.439-.776-1.333-1.543-2.671-2.316-4.007q-1.283-2.217-2.567-4.433a5.163,5.163,0,0,1-.314-.582.537.537,0,0,1,.459-.833,3.6,3.6,0,0,1,.578-.02h9.6a3.526,3.526,0,0,1,.5.01c.524.074.723.4.486.876C735.489,957.058,735.162,957.571,734.831,958.149Z" transform="translate(-93.204 -178.64)" fill="#ff7402"/>
    <path id="Path_69" data-name="Path 69" d="M876.039,955.809a3.546,3.546,0,0,1,.864-.15q4.809-.011,9.618,0c1.247,0,1.4.276.773,1.355q-2.427,4.189-4.85,8.38a2.537,2.537,0,0,1-.258.421.534.534,0,0,1-.906-.026,6.133,6.133,0,0,1-.435-.7q-2.339-4.049-4.668-8.1C875.984,956.645,875.633,956.3,876.039,955.809Z" transform="translate(-232.404 -178.665)" fill="#ff7402"/>
    <path id="Path_70" data-name="Path 70" d="M648.379,830.765c-1.2-2.081-2.377-4.109-3.549-6.138a2.42,2.42,0,0,1-.221-.444.5.5,0,0,1,.449-.706,3.384,3.384,0,0,1,.5-.011c3.26,0,6.52.033,9.779-.018,1.175-.018,1.164.569.722,1.328-1.639,2.811-3.26,5.632-4.887,8.449a2.665,2.665,0,0,1-.172.281.575.575,0,0,1-1.048-.043C649.418,832.592,648.92,831.7,648.379,830.765Z" transform="translate(-20.309 -57.424)" fill="#ff7402"/>
    <path id="Path_71" data-name="Path 71" d="M810.942,830.72c-.512.888-.983,1.729-1.482,2.554-.432.713-.853.7-1.273-.022q-2.486-4.289-4.958-8.586c-.54-.94-.366-1.239.7-1.241q4.925-.006,9.85,0a.511.511,0,0,0,.083,0c.832-.144,1.132.461.675,1.1-.368.511-.628,1.1-.945,1.647C812.717,827.669,811.843,829.167,810.942,830.72Z" transform="translate(-165.533 -57.382)" fill="#ff7402"/>
    <path id="Path_72" data-name="Path 72" d="M800.938,1093.317c-.231-.412-.438-.767-.625-1.09a.71.71,0,0,1,.788-.627c3.451.011,6.9,0,10.354.011.75,0,.928.339.543,1.012q-1.971,3.445-3.966,6.874c-.359.621-.727,1.236-1.091,1.853-.5.853-.872.845-1.382-.034C804.026,1098.668,802.495,1096.021,800.938,1093.317Z" transform="translate(-163.132 -303.334)" fill="#ff7402"/>
    <path id="Path_73" data-name="Path 73" d="M960.977,1099.866c-1.4-2.411-2.767-4.77-4.133-7.13a2.127,2.127,0,0,1-.182-.37.5.5,0,0,1,.415-.724,3.649,3.649,0,0,1,.578-.015h9.768a4,4,0,0,1,.414,0c.523.054.713.37.492.845-.151.323-.334.633-.513.943q-2.294,3.971-4.591,7.941c-.055.1-.1.195-.168.284-.334.46-.737.473-1.049-.01C961.649,1101.076,961.341,1100.49,960.977,1099.866Z" transform="translate(-306.473 -303.354)" fill="#ff7402"/>
    <path id="Path_74" data-name="Path 74" d="M494.017,1091.6h8.032c.193,0,.387-.012.579,0,.628.047.806.37.513.948-.149.294-.331.572-.5.858q-2.316,4.008-4.637,8.011a1.12,1.12,0,0,1-.494.49c-.383.139-.592-.144-.768-.454-.71-1.245-1.431-2.482-2.147-3.723q-1.426-2.469-2.85-4.94a2.261,2.261,0,0,1-.2-.359c-.173-.5.024-.8.568-.827C492.719,1091.582,493.328,1091.6,494.017,1091.6Z" transform="translate(120.08 -303.329)" fill="#ff7402"/>
    <path id="Path_75" data-name="Path 75" d="M652.838,1100.3c-.235.412-.438.772-.656,1.124-.47.762-.866.769-1.312,0q-1.77-3.036-3.519-6.083c-.482-.834-.964-1.669-1.435-2.511a2.059,2.059,0,0,1-.238-.6.451.451,0,0,1,.424-.585,3.643,3.643,0,0,1,.5-.018h9.856a3.123,3.123,0,0,1,.5.012.5.5,0,0,1,.432.715,2.525,2.525,0,0,1-.221.443C655.728,1095.283,654.3,1097.765,652.838,1100.3Z" transform="translate(-21.311 -303.357)" fill="#ff7402"/>
    <path id="Path_76" data-name="Path 76" d="M726.4,701.8c-1.35-2.348-2.676-4.641-4-6.935a3.28,3.28,0,0,1-.226-.442c-.176-.451.006-.737.5-.794a3.7,3.7,0,0,1,.414,0q4.893,0,9.785,0c1.131,0,1.275.256.7,1.264q-2.43,4.236-4.87,8.466a3.273,3.273,0,0,1-.167.285c-.325.45-.755.462-1.053,0C727.105,703.057,726.773,702.451,726.4,701.8Z" transform="translate(-91.412 61.632)" fill="#ff7402"/>
  </g>
</svg>
